<?xml version="1.0" encoding="UTF-8"?>
<svg id="Layer_1" data-name="Layer 1" xmlns="http://www.w3.org/2000/svg" version="1.1" viewBox="0 0 420.5 36.6">
  <defs>
    <style>
      .cls-1 {
        fill: #37acc5;
        fill-rule: evenodd;
        stroke-width: 0px;
      }
    </style>
  </defs>
  <path class="cls-1" d="M0,36V.5h15.8c4.7,0,8.2,1,10.5,3.1,2.3,2.1,3.4,5,3.4,8.7s-1.1,6.7-3.4,8.8c-2.3,2.1-5.8,3.1-10.5,3.1h-6.6v11.7H0ZM9.1,17.1h5.2c1.9,0,3.4-.4,4.5-1.1,1-.7,1.6-1.9,1.6-3.6s-.5-2.9-1.6-3.6c-1-.7-2.5-1.1-4.5-1.1h-5.2v9.4h0ZM44.8,36V.5h9.1v27.6h14.7v7.9h-23.8ZM81.1,36L94.5.5h10.1l13.5,35.5h-9.9l-1.9-5.6h-13.4l-1.9,5.6h-9.9ZM95.2,23h8.8l-4.4-12.9-4.4,12.9h0ZM131.9,36V.5h9.7l13,21.7V.5h9.1v35.5h-9.7l-13-21.7v21.7h-9.1ZM180.5,36V.5h26.5v7.7h-17.3v6.1h15.7v7h-15.7v7.1h17.3v7.7h-26.5ZM240.3,36.6c-3.9,0-7.2-.8-10.1-2.4s-5.1-3.7-6.6-6.5c-1.6-2.7-2.3-5.9-2.3-9.4s.8-6.7,2.4-9.4c1.6-2.7,3.8-4.9,6.7-6.5,2.9-1.6,6.2-2.4,10-2.4s4.5.3,6.6.9c2.1.6,4.1,1.6,6.2,2.9l-3.1,6.9c-1.8-1-3.4-1.7-4.9-2.1-1.5-.4-3.1-.6-4.7-.6s-3.7.4-5.2,1.3c-1.5.9-2.6,2.1-3.5,3.6-.8,1.5-1.2,3.4-1.2,5.4s.4,3.9,1.2,5.4c.8,1.6,2,2.8,3.5,3.6,1.5.9,3.2,1.3,5.2,1.3s3.2-.2,4.7-.6c1.5-.4,3.2-1.1,4.9-2.1l3.1,6.9c-2.1,1.3-4.1,2.3-6.2,2.9-2.1.6-4.3.9-6.6.9h0ZM267.8,36V.5h9.1v35.5h-9.1ZM311.1,36.6c-3.9,0-7.2-.8-10.1-2.4-2.9-1.6-5.1-3.7-6.6-6.5-1.6-2.7-2.3-5.9-2.3-9.4s.8-6.7,2.4-9.4c1.6-2.7,3.8-4.9,6.6-6.5,2.9-1.6,6.2-2.4,10.1-2.4s7.2.8,10.1,2.4c2.9,1.6,5.1,3.7,6.6,6.5,1.6,2.7,2.3,5.9,2.3,9.4s-.8,6.7-2.3,9.4c-1.6,2.7-3.8,4.9-6.6,6.5-2.9,1.6-6.2,2.4-10.1,2.4h0ZM311.1,28.7c1.9,0,3.7-.4,5.1-1.3,1.5-.9,2.6-2.1,3.5-3.6.8-1.6,1.2-3.4,1.2-5.4s-.4-3.9-1.2-5.4c-.8-1.5-2-2.7-3.5-3.6-1.5-.9-3.2-1.3-5.1-1.3s-3.7.4-5.2,1.3c-1.5.9-2.6,2.1-3.5,3.6-.8,1.5-1.2,3.4-1.2,5.4s.4,3.9,1.2,5.4c.8,1.6,2,2.8,3.5,3.6,1.5.9,3.2,1.3,5.2,1.3h0ZM361.2,36.6c-5.1,0-9-1.2-11.8-3.7-2.7-2.5-4.1-6.3-4.1-11.6V.5h9.1v20.8c0,1.6.2,2.9.7,4,.5,1.1,1.2,1.9,2.2,2.5,1,.5,2.3.8,3.8.8s2.8-.3,3.8-.8c1-.5,1.7-1.4,2.2-2.5.5-1.1.7-2.4.7-4V.5h9.1v20.8c0,5.2-1.4,9.1-4.1,11.6-2.7,2.5-6.7,3.7-11.8,3.7h0ZM405.7,36.6c-2.6,0-4.9-.4-7.1-1.1-2.1-.7-4.3-1.9-6.4-3.5l3.1-6.9c2,1.2,3.9,2.2,5.7,2.9,1.8.7,3.3,1,4.7,1s3.1-.3,4.1-1c.9-.6,1.4-1.5,1.4-2.6s-.3-1.5-.9-2.1c-.6-.6-1.5-1-2.7-1.2l-4.4-.9c-3.5-.6-6-1.7-7.6-3.3-1.5-1.5-2.3-3.5-2.3-6s.5-4.3,1.4-6.1c.9-1.8,2.4-3.3,4.4-4.4,2-1.1,4.6-1.6,7.8-1.6s4.1.3,6.1.8c2.1.5,4.2,1.5,6.3,3l-3.1,6.9c-1.8-1-3.4-1.7-5-2.3-1.6-.6-2.9-.9-4.1-.9s-2.8.3-3.5.8c-.7.5-1.1,1.3-1.1,2.3s.3,1.5.9,1.9c.6.5,1.5.8,2.7,1l4.4.9c3.5.6,6,1.9,7.5,3.7,1.6,1.8,2.3,4,2.3,6.4,0,3.8-1.2,6.8-3.7,8.9-2.5,2.1-6.2,3.2-11,3.2Z"/>
</svg>